<svg width="200" height="70" viewBox="0 0 200 70" fill="none" xmlns="http://www.w3.org/2000/svg">
<path d="M2.16 36V6.84H15.264V11.232H8.604V18.468H13.68V22.932H8.604V31.644H15.336V36H2.16ZM22.2216 36.36C21.1656 36.36 20.2776 36.108 19.5576 35.604C18.8376 35.1 18.2976 34.464 17.9376 33.696C17.5776 32.904 17.3976 32.1 17.3976 31.284C17.3976 29.988 17.6496 28.896 18.1536 28.008C18.6816 27.12 19.3656 26.376 20.2056 25.776C21.0456 25.176 21.9696 24.672 22.9776 24.264C23.9856 23.832 24.9816 23.448 25.9656 23.112V21.024C25.9656 20.664 25.9296 20.352 25.8576 20.088C25.7856 19.8 25.6656 19.584 25.4976 19.44C25.3296 19.272 25.0776 19.188 24.7416 19.188C24.4056 19.188 24.1416 19.26 23.9496 19.404C23.7816 19.548 23.6616 19.752 23.5896 20.016C23.5176 20.256 23.4696 20.532 23.4456 20.844L23.3016 22.356L17.8296 22.14C17.9496 19.644 18.6096 17.808 19.8096 16.632C21.0336 15.432 22.8576 14.832 25.2816 14.832C27.3936 14.832 28.9656 15.42 29.9976 16.596C31.0536 17.748 31.5816 19.248 31.5816 21.096V30.816C31.5816 31.68 31.5936 32.436 31.6176 33.084C31.6656 33.732 31.7136 34.296 31.7616 34.776C31.8336 35.256 31.8936 35.664 31.9416 36H26.6856C26.6136 35.448 26.5296 34.848 26.4336 34.2C26.3376 33.552 26.2656 33.168 26.2176 33.048C25.9776 33.912 25.5216 34.68 24.8496 35.352C24.2016 36.024 23.3256 36.36 22.2216 36.36ZM24.3096 32.4C24.5496 32.4 24.7656 32.352 24.9576 32.256C25.1736 32.16 25.3656 32.028 25.5336 31.86C25.7016 31.692 25.8456 31.524 25.9656 31.356V25.668C25.4856 25.956 25.0416 26.256 24.6336 26.568C24.2256 26.856 23.8776 27.18 23.5896 27.54C23.3016 27.9 23.0736 28.296 22.9056 28.728C22.7616 29.136 22.6896 29.604 22.6896 30.132C22.6896 30.828 22.8336 31.38 23.1216 31.788C23.4096 32.196 23.8056 32.4 24.3096 32.4ZM41.4667 36.36C39.6427 36.36 38.1187 35.952 36.8947 35.136C35.6947 34.32 34.7107 32.988 33.9427 31.14L37.9387 29.376C38.3227 30.312 38.7667 31.056 39.2707 31.608C39.7987 32.136 40.3747 32.4 40.9987 32.4C41.4547 32.4 41.7907 32.304 42.0067 32.112C42.2467 31.92 42.3667 31.656 42.3667 31.32C42.3667 30.768 42.1507 30.264 41.7187 29.808C41.3107 29.352 40.5667 28.68 39.4867 27.792L37.9747 26.532C36.8707 25.596 35.9947 24.696 35.3467 23.832C34.7227 22.944 34.4107 21.852 34.4107 20.556C34.4107 19.428 34.6987 18.432 35.2747 17.568C35.8747 16.704 36.6667 16.032 37.6507 15.552C38.6347 15.072 39.6907 14.832 40.8187 14.832C42.5227 14.832 43.9507 15.3 45.1027 16.236C46.2547 17.172 47.0587 18.492 47.5147 20.196L43.7347 21.924C43.5907 21.468 43.3867 21.012 43.1227 20.556C42.8587 20.1 42.5347 19.716 42.1507 19.404C41.7907 19.092 41.3947 18.936 40.9627 18.936C40.5787 18.936 40.2667 19.044 40.0267 19.26C39.8107 19.476 39.7027 19.764 39.7027 20.124C39.7027 20.58 39.9547 21.072 40.4587 21.6C40.9867 22.128 41.7067 22.764 42.6187 23.508L44.0947 24.804C44.6947 25.308 45.2827 25.848 45.8587 26.424C46.4347 27 46.9027 27.636 47.2627 28.332C47.6467 29.028 47.8387 29.82 47.8387 30.708C47.8387 31.908 47.5387 32.94 46.9387 33.804C46.3387 34.644 45.5467 35.28 44.5627 35.712C43.6027 36.144 42.5707 36.36 41.4667 36.36ZM50.8925 42.048V37.98C51.6365 37.98 52.2485 37.932 52.7285 37.836C53.2325 37.74 53.6045 37.56 53.8445 37.296C54.1085 37.032 54.2405 36.672 54.2405 36.216C54.2405 35.808 54.1685 35.316 54.0245 34.74C53.8805 34.14 53.7005 33.468 53.4845 32.724L48.5885 15.192H54.0965L56.7245 27.216L58.7045 15.192H64.2485L59.4605 36.504C59.1485 37.944 58.6565 39.06 57.9845 39.852C57.3125 40.668 56.4845 41.232 55.5005 41.544C54.5405 41.88 53.4485 42.048 52.2245 42.048H50.8925ZM74.5172 36.432C72.6932 36.432 71.1692 36.108 69.9452 35.46C68.7212 34.812 67.7972 33.816 67.1732 32.472C66.5492 31.104 66.2012 29.34 66.1292 27.18L71.6372 26.352C71.6612 27.6 71.7692 28.608 71.9612 29.376C72.1772 30.144 72.4652 30.696 72.8252 31.032C73.2092 31.368 73.6652 31.536 74.1932 31.536C74.8652 31.536 75.2972 31.308 75.4892 30.852C75.7052 30.396 75.8132 29.916 75.8132 29.412C75.8132 28.212 75.5252 27.204 74.9492 26.388C74.3732 25.548 73.5932 24.708 72.6092 23.868L70.0892 21.672C68.9852 20.736 68.0492 19.68 67.2812 18.504C66.5372 17.304 66.1652 15.828 66.1652 14.076C66.1652 11.604 66.8972 9.72 68.3612 8.424C69.8252 7.104 71.8172 6.444 74.3372 6.444C75.8972 6.444 77.1452 6.708 78.0812 7.236C79.0412 7.764 79.7612 8.46 80.2412 9.324C80.7452 10.164 81.0812 11.064 81.2492 12.024C81.4412 12.96 81.5492 13.86 81.5732 14.724L76.0292 15.408C76.0052 14.544 75.9452 13.8 75.8492 13.176C75.7772 12.528 75.6092 12.036 75.3452 11.7C75.0812 11.34 74.6732 11.16 74.1212 11.16C73.5212 11.16 73.0772 11.412 72.7892 11.916C72.5252 12.42 72.3932 12.924 72.3932 13.428C72.3932 14.508 72.6452 15.396 73.1492 16.092C73.6772 16.764 74.3612 17.472 75.2012 18.216L77.6132 20.34C78.8852 21.42 79.9532 22.644 80.8172 24.012C81.7052 25.38 82.1492 27.072 82.1492 29.088C82.1492 30.456 81.8372 31.704 81.2132 32.832C80.5892 33.936 79.7012 34.812 78.5492 35.46C77.4212 36.108 76.0772 36.432 74.5172 36.432ZM91.3894 36.216C89.8294 36.216 88.6174 35.988 87.7534 35.532C86.9134 35.076 86.3374 34.416 86.0254 33.552C85.7134 32.664 85.5574 31.596 85.5574 30.348V19.044H83.5414V15.192H85.5574V8.856H91.4974V15.192H94.4494V19.044H91.4974V29.772C91.4974 30.372 91.6654 30.804 92.0014 31.068C92.3614 31.332 92.8054 31.464 93.3334 31.464C93.6454 31.464 93.9334 31.452 94.1974 31.428C94.4614 31.38 94.7014 31.344 94.9174 31.32V35.928C94.6054 35.976 94.1134 36.036 93.4414 36.108C92.7694 36.18 92.0854 36.216 91.3894 36.216ZM101.956 36.36C100.9 36.36 100.012 36.108 99.2919 35.604C98.5719 35.1 98.0319 34.464 97.6719 33.696C97.3119 32.904 97.1319 32.1 97.1319 31.284C97.1319 29.988 97.3839 28.896 97.8879 28.008C98.4159 27.12 99.0999 26.376 99.9399 25.776C100.78 25.176 101.704 24.672 102.712 24.264C103.72 23.832 104.716 23.448 105.7 23.112V21.024C105.7 20.664 105.664 20.352 105.592 20.088C105.52 19.8 105.4 19.584 105.232 19.44C105.064 19.272 104.812 19.188 104.476 19.188C104.14 19.188 103.876 19.26 103.684 19.404C103.516 19.548 103.396 19.752 103.324 20.016C103.252 20.256 103.204 20.532 103.18 20.844L103.036 22.356L97.5639 22.14C97.6839 19.644 98.3439 17.808 99.5439 16.632C100.768 15.432 102.592 14.832 105.016 14.832C107.128 14.832 108.7 15.42 109.732 16.596C110.788 17.748 111.316 19.248 111.316 21.096V30.816C111.316 31.68 111.328 32.436 111.352 33.084C111.4 33.732 111.448 34.296 111.496 34.776C111.568 35.256 111.628 35.664 111.676 36H106.42C106.348 35.448 106.264 34.848 106.168 34.2C106.072 33.552 106 33.168 105.952 33.048C105.712 33.912 105.256 34.68 104.584 35.352C103.936 36.024 103.06 36.36 101.956 36.36ZM104.044 32.4C104.284 32.4 104.5 32.352 104.692 32.256C104.908 32.16 105.1 32.028 105.268 31.86C105.436 31.692 105.58 31.524 105.7 31.356V25.668C105.22 25.956 104.776 26.256 104.368 26.568C103.96 26.856 103.612 27.18 103.324 27.54C103.036 27.9 102.808 28.296 102.64 28.728C102.496 29.136 102.424 29.604 102.424 30.132C102.424 30.828 102.568 31.38 102.856 31.788C103.144 32.196 103.54 32.4 104.044 32.4ZM114.865 36V15.192H120.733V18.648C121.405 17.448 122.077 16.536 122.749 15.912C123.421 15.264 124.237 14.94 125.197 14.94C125.389 14.94 125.557 14.952 125.701 14.976C125.845 14.976 125.977 15 126.097 15.048V20.88C125.833 20.76 125.533 20.664 125.197 20.592C124.885 20.496 124.549 20.448 124.189 20.448C123.517 20.448 122.893 20.628 122.317 20.988C121.741 21.348 121.213 21.84 120.733 22.464V36H114.865ZM134.982 36.36C133.158 36.36 131.634 35.952 130.41 35.136C129.21 34.32 128.226 32.988 127.458 31.14L131.454 29.376C131.838 30.312 132.282 31.056 132.786 31.608C133.314 32.136 133.89 32.4 134.514 32.4C134.97 32.4 135.306 32.304 135.522 32.112C135.762 31.92 135.882 31.656 135.882 31.32C135.882 30.768 135.666 30.264 135.234 29.808C134.826 29.352 134.082 28.68 133.002 27.792L131.49 26.532C130.386 25.596 129.51 24.696 128.862 23.832C128.238 22.944 127.926 21.852 127.926 20.556C127.926 19.428 128.214 18.432 128.79 17.568C129.39 16.704 130.182 16.032 131.166 15.552C132.15 15.072 133.206 14.832 134.334 14.832C136.038 14.832 137.466 15.3 138.618 16.236C139.77 17.172 140.574 18.492 141.03 20.196L137.25 21.924C137.106 21.468 136.902 21.012 136.638 20.556C136.374 20.1 136.05 19.716 135.666 19.404C135.306 19.092 134.91 18.936 134.478 18.936C134.094 18.936 133.782 19.044 133.542 19.26C133.326 19.476 133.218 19.764 133.218 20.124C133.218 20.58 133.47 21.072 133.974 21.6C134.502 22.128 135.222 22.764 136.134 23.508L137.61 24.804C138.21 25.308 138.798 25.848 139.374 26.424C139.95 27 140.418 27.636 140.778 28.332C141.162 29.028 141.354 29.82 141.354 30.708C141.354 31.908 141.054 32.94 140.454 33.804C139.854 34.644 139.062 35.28 138.078 35.712C137.118 36.144 136.086 36.36 134.982 36.36Z" fill="#FFAF36"/>
<path d="M2.16 36V6.84H15.264V11.232H8.604V18.468H13.68V22.932H8.604V31.644H15.336V36H2.16ZM22.2216 36.36C21.1656 36.36 20.2776 36.108 19.5576 35.604C18.8376 35.1 18.2976 34.464 17.9376 33.696C17.5776 32.904 17.3976 32.1 17.3976 31.284C17.3976 29.988 17.6496 28.896 18.1536 28.008C18.6816 27.12 19.3656 26.376 20.2056 25.776C21.0456 25.176 21.9696 24.672 22.9776 24.264C23.9856 23.832 24.9816 23.448 25.9656 23.112V21.024C25.9656 20.664 25.9296 20.352 25.8576 20.088C25.7856 19.8 25.6656 19.584 25.4976 19.44C25.3296 19.272 25.0776 19.188 24.7416 19.188C24.4056 19.188 24.1416 19.26 23.9496 19.404C23.7816 19.548 23.6616 19.752 23.5896 20.016C23.5176 20.256 23.4696 20.532 23.4456 20.844L23.3016 22.356L17.8296 22.14C17.9496 19.644 18.6096 17.808 19.8096 16.632C21.0336 15.432 22.8576 14.832 25.2816 14.832C27.3936 14.832 28.9656 15.42 29.9976 16.596C31.0536 17.748 31.5816 19.248 31.5816 21.096V30.816C31.5816 31.68 31.5936 32.436 31.6176 33.084C31.6656 33.732 31.7136 34.296 31.7616 34.776C31.8336 35.256 31.8936 35.664 31.9416 36H26.6856C26.6136 35.448 26.5296 34.848 26.4336 34.2C26.3376 33.552 26.2656 33.168 26.2176 33.048C25.9776 33.912 25.5216 34.68 24.8496 35.352C24.2016 36.024 23.3256 36.36 22.2216 36.36ZM24.3096 32.4C24.5496 32.4 24.7656 32.352 24.9576 32.256C25.1736 32.16 25.3656 32.028 25.5336 31.86C25.7016 31.692 25.8456 31.524 25.9656 31.356V25.668C25.4856 25.956 25.0416 26.256 24.6336 26.568C24.2256 26.856 23.8776 27.18 23.5896 27.54C23.3016 27.9 23.0736 28.296 22.9056 28.728C22.7616 29.136 22.6896 29.604 22.6896 30.132C22.6896 30.828 22.8336 31.38 23.1216 31.788C23.4096 32.196 23.8056 32.4 24.3096 32.4ZM41.4667 36.36C39.6427 36.36 38.1187 35.952 36.8947 35.136C35.6947 34.32 34.7107 32.988 33.9427 31.14L37.9387 29.376C38.3227 30.312 38.7667 31.056 39.2707 31.608C39.7987 32.136 40.3747 32.4 40.9987 32.4C41.4547 32.4 41.7907 32.304 42.0067 32.112C42.2467 31.92 42.3667 31.656 42.3667 31.32C42.3667 30.768 42.1507 30.264 41.7187 29.808C41.3107 29.352 40.5667 28.68 39.4867 27.792L37.9747 26.532C36.8707 25.596 35.9947 24.696 35.3467 23.832C34.7227 22.944 34.4107 21.852 34.4107 20.556C34.4107 19.428 34.6987 18.432 35.2747 17.568C35.8747 16.704 36.6667 16.032 37.6507 15.552C38.6347 15.072 39.6907 14.832 40.8187 14.832C42.5227 14.832 43.9507 15.3 45.1027 16.236C46.2547 17.172 47.0587 18.492 47.5147 20.196L43.7347 21.924C43.5907 21.468 43.3867 21.012 43.1227 20.556C42.8587 20.1 42.5347 19.716 42.1507 19.404C41.7907 19.092 41.3947 18.936 40.9627 18.936C40.5787 18.936 40.2667 19.044 40.0267 19.26C39.8107 19.476 39.7027 19.764 39.7027 20.124C39.7027 20.58 39.9547 21.072 40.4587 21.6C40.9867 22.128 41.7067 22.764 42.6187 23.508L44.0947 24.804C44.6947 25.308 45.2827 25.848 45.8587 26.424C46.4347 27 46.9027 27.636 47.2627 28.332C47.6467 29.028 47.8387 29.82 47.8387 30.708C47.8387 31.908 47.5387 32.94 46.9387 33.804C46.3387 34.644 45.5467 35.28 44.5627 35.712C43.6027 36.144 42.5707 36.36 41.4667 36.36ZM50.8925 42.048V37.98C51.6365 37.98 52.2485 37.932 52.7285 37.836C53.2325 37.74 53.6045 37.56 53.8445 37.296C54.1085 37.032 54.2405 36.672 54.2405 36.216C54.2405 35.808 54.1685 35.316 54.0245 34.74C53.8805 34.14 53.7005 33.468 53.4845 32.724L48.5885 15.192H54.0965L56.7245 27.216L58.7045 15.192H64.2485L59.4605 36.504C59.1485 37.944 58.6565 39.06 57.9845 39.852C57.3125 40.668 56.4845 41.232 55.5005 41.544C54.5405 41.88 53.4485 42.048 52.2245 42.048H50.8925ZM74.5172 36.432C72.6932 36.432 71.1692 36.108 69.9452 35.46C68.7212 34.812 67.7972 33.816 67.1732 32.472C66.5492 31.104 66.2012 29.34 66.1292 27.18L71.6372 26.352C71.6612 27.6 71.7692 28.608 71.9612 29.376C72.1772 30.144 72.4652 30.696 72.8252 31.032C73.2092 31.368 73.6652 31.536 74.1932 31.536C74.8652 31.536 75.2972 31.308 75.4892 30.852C75.7052 30.396 75.8132 29.916 75.8132 29.412C75.8132 28.212 75.5252 27.204 74.9492 26.388C74.3732 25.548 73.5932 24.708 72.6092 23.868L70.0892 21.672C68.9852 20.736 68.0492 19.68 67.2812 18.504C66.5372 17.304 66.1652 15.828 66.1652 14.076C66.1652 11.604 66.8972 9.72 68.3612 8.424C69.8252 7.104 71.8172 6.444 74.3372 6.444C75.8972 6.444 77.1452 6.708 78.0812 7.236C79.0412 7.764 79.7612 8.46 80.2412 9.324C80.7452 10.164 81.0812 11.064 81.2492 12.024C81.4412 12.96 81.5492 13.86 81.5732 14.724L76.0292 15.408C76.0052 14.544 75.9452 13.8 75.8492 13.176C75.7772 12.528 75.6092 12.036 75.3452 11.7C75.0812 11.34 74.6732 11.16 74.1212 11.16C73.5212 11.16 73.0772 11.412 72.7892 11.916C72.5252 12.42 72.3932 12.924 72.3932 13.428C72.3932 14.508 72.6452 15.396 73.1492 16.092C73.6772 16.764 74.3612 17.472 75.2012 18.216L77.6132 20.34C78.8852 21.42 79.9532 22.644 80.8172 24.012C81.7052 25.38 82.1492 27.072 82.1492 29.088C82.1492 30.456 81.8372 31.704 81.2132 32.832C80.5892 33.936 79.7012 34.812 78.5492 35.46C77.4212 36.108 76.0772 36.432 74.5172 36.432ZM91.3894 36.216C89.8294 36.216 88.6174 35.988 87.7534 35.532C86.9134 35.076 86.3374 34.416 86.0254 33.552C85.7134 32.664 85.5574 31.596 85.5574 30.348V19.044H83.5414V15.192H85.5574V8.856H91.4974V15.192H94.4494V19.044H91.4974V29.772C91.4974 30.372 91.6654 30.804 92.0014 31.068C92.3614 31.332 92.8054 31.464 93.3334 31.464C93.6454 31.464 93.9334 31.452 94.1974 31.428C94.4614 31.38 94.7014 31.344 94.9174 31.32V35.928C94.6054 35.976 94.1134 36.036 93.4414 36.108C92.7694 36.18 92.0854 36.216 91.3894 36.216ZM101.956 36.36C100.9 36.36 100.012 36.108 99.2919 35.604C98.5719 35.1 98.0319 34.464 97.6719 33.696C97.3119 32.904 97.1319 32.1 97.1319 31.284C97.1319 29.988 97.3839 28.896 97.8879 28.008C98.4159 27.12 99.0999 26.376 99.9399 25.776C100.78 25.176 101.704 24.672 102.712 24.264C103.72 23.832 104.716 23.448 105.7 23.112V21.024C105.7 20.664 105.664 20.352 105.592 20.088C105.52 19.8 105.4 19.584 105.232 19.44C105.064 19.272 104.812 19.188 104.476 19.188C104.14 19.188 103.876 19.26 103.684 19.404C103.516 19.548 103.396 19.752 103.324 20.016C103.252 20.256 103.204 20.532 103.18 20.844L103.036 22.356L97.5639 22.14C97.6839 19.644 98.3439 17.808 99.5439 16.632C100.768 15.432 102.592 14.832 105.016 14.832C107.128 14.832 108.7 15.42 109.732 16.596C110.788 17.748 111.316 19.248 111.316 21.096V30.816C111.316 31.68 111.328 32.436 111.352 33.084C111.4 33.732 111.448 34.296 111.496 34.776C111.568 35.256 111.628 35.664 111.676 36H106.42C106.348 35.448 106.264 34.848 106.168 34.2C106.072 33.552 106 33.168 105.952 33.048C105.712 33.912 105.256 34.68 104.584 35.352C103.936 36.024 103.06 36.36 101.956 36.36ZM104.044 32.4C104.284 32.4 104.5 32.352 104.692 32.256C104.908 32.16 105.1 32.028 105.268 31.86C105.436 31.692 105.58 31.524 105.7 31.356V25.668C105.22 25.956 104.776 26.256 104.368 26.568C103.96 26.856 103.612 27.18 103.324 27.54C103.036 27.9 102.808 28.296 102.64 28.728C102.496 29.136 102.424 29.604 102.424 30.132C102.424 30.828 102.568 31.38 102.856 31.788C103.144 32.196 103.54 32.4 104.044 32.4ZM114.865 36V15.192H120.733V18.648C121.405 17.448 122.077 16.536 122.749 15.912C123.421 15.264 124.237 14.94 125.197 14.94C125.389 14.94 125.557 14.952 125.701 14.976C125.845 14.976 125.977 15 126.097 15.048V20.88C125.833 20.76 125.533 20.664 125.197 20.592C124.885 20.496 124.549 20.448 124.189 20.448C123.517 20.448 122.893 20.628 122.317 20.988C121.741 21.348 121.213 21.84 120.733 22.464V36H114.865ZM134.982 36.36C133.158 36.36 131.634 35.952 130.41 35.136C129.21 34.32 128.226 32.988 127.458 31.14L131.454 29.376C131.838 30.312 132.282 31.056 132.786 31.608C133.314 32.136 133.89 32.4 134.514 32.4C134.97 32.4 135.306 32.304 135.522 32.112C135.762 31.92 135.882 31.656 135.882 31.32C135.882 30.768 135.666 30.264 135.234 29.808C134.826 29.352 134.082 28.68 133.002 27.792L131.49 26.532C130.386 25.596 129.51 24.696 128.862 23.832C128.238 22.944 127.926 21.852 127.926 20.556C127.926 19.428 128.214 18.432 128.79 17.568C129.39 16.704 130.182 16.032 131.166 15.552C132.15 15.072 133.206 14.832 134.334 14.832C136.038 14.832 137.466 15.3 138.618 16.236C139.77 17.172 140.574 18.492 141.03 20.196L137.25 21.924C137.106 21.468 136.902 21.012 136.638 20.556C136.374 20.1 136.05 19.716 135.666 19.404C135.306 19.092 134.91 18.936 134.478 18.936C134.094 18.936 133.782 19.044 133.542 19.26C133.326 19.476 133.218 19.764 133.218 20.124C133.218 20.58 133.47 21.072 133.974 21.6C134.502 22.128 135.222 22.764 136.134 23.508L137.61 24.804C138.21 25.308 138.798 25.848 139.374 26.424C139.95 27 140.418 27.636 140.778 28.332C141.162 29.028 141.354 29.82 141.354 30.708C141.354 31.908 141.054 32.94 140.454 33.804C139.854 34.644 139.062 35.28 138.078 35.712C137.118 36.144 136.086 36.36 134.982 36.36Z" fill="url(#paint0_linear)"/>
<path d="M6.40137 58.8451H5.57129V55.4857H1.81152V58.8451H0.981445V51.7064H1.81152V54.7435H5.57129V51.7064H6.40137V58.8451ZM12.8516 58.8451L11.9629 56.5746H9.10156L8.22266 58.8451H7.38281L10.2051 51.6771H10.9033L13.7109 58.8451H12.8516ZM11.7041 55.8275L10.874 53.6156C10.7666 53.3356 10.6559 52.9922 10.542 52.5853C10.4704 52.8978 10.3678 53.2412 10.2344 53.6156L9.39453 55.8275H11.7041ZM25.6494 58.8451H17.29V51.7064H18.1201V58.0931H21.0498V51.7064H21.8799V58.0931H24.8096V51.7064H25.6494V58.8451ZM32.0996 58.8451L31.2109 56.5746H28.3496L27.4707 58.8451H26.6309L29.4531 51.6771H30.1514L32.959 58.8451H32.0996ZM30.9521 55.8275L30.1221 53.6156C30.0146 53.3356 29.904 52.9922 29.79 52.5853C29.7184 52.8978 29.6159 53.2412 29.4824 53.6156L28.6426 55.8275H30.9521ZM37.9199 51.7064V52.4535H34.7705V58.8451H33.9404V51.7064H37.9199ZM47.9395 55.266C47.9395 56.4085 47.6497 57.307 47.0703 57.9613C46.4941 58.6156 45.6917 58.9427 44.6631 58.9427C43.6117 58.9427 42.7995 58.6221 42.2266 57.9808C41.6569 57.3363 41.3721 56.4281 41.3721 55.2562C41.3721 54.0941 41.6585 53.194 42.2314 52.556C42.8044 51.9147 43.6182 51.5941 44.6729 51.5941C45.6982 51.5941 46.499 51.9196 47.0752 52.5706C47.6514 53.2217 47.9395 54.1201 47.9395 55.266ZM42.251 55.266C42.251 56.2328 42.4561 56.9668 42.8662 57.4681C43.2796 57.9662 43.8786 58.2152 44.6631 58.2152C45.4541 58.2152 46.0514 57.9662 46.4551 57.4681C46.8587 56.9701 47.0605 56.236 47.0605 55.266C47.0605 54.3057 46.8587 53.5781 46.4551 53.0833C46.0547 52.5853 45.4606 52.3363 44.6729 52.3363C43.8818 52.3363 43.2796 52.5869 42.8662 53.0882C42.4561 53.5863 42.251 54.3122 42.251 55.266ZM54.8633 58.8451H54.0332V52.4437H50.3662V58.8451H49.5361V51.7064H54.8633V58.8451ZM60.8105 58.8451H56.8311V51.7064H60.8105V52.4437H57.6611V54.7435H60.6201V55.4759H57.6611V58.1029H60.8105V58.8451ZM66.9238 53.7865C66.9238 54.5091 66.6764 55.0658 66.1816 55.4564C65.6901 55.8438 64.9854 56.0374 64.0674 56.0374H63.2275V58.8451H62.3975V51.7064H64.248C66.0319 51.7064 66.9238 52.3997 66.9238 53.7865ZM63.2275 55.3246H63.9746C64.7103 55.3246 65.2425 55.2057 65.5713 54.9681C65.9001 54.7305 66.0645 54.3496 66.0645 53.8255C66.0645 53.3535 65.9098 53.002 65.6006 52.7708C65.2913 52.5397 64.8096 52.4242 64.1553 52.4242H63.2275V55.3246ZM72.4023 58.8451H68.4229V51.7064H72.4023V52.4437H69.2529V54.7435H72.2119V55.4759H69.2529V58.1029H72.4023V58.8451ZM75.9277 55.1732L73.1201 51.7064H74.0479L76.8262 55.1634V51.7064H77.627V55.1634L80.4102 51.7064H81.3379L78.5254 55.1634L81.4258 58.8451H80.4688L77.627 55.2269V58.8451H76.8262V55.2269L73.9893 58.8451H73.0176L75.9277 55.1732ZM86.9238 58.8451L86.0352 56.5746H83.1738L82.2949 58.8451H81.4551L84.2773 51.6771H84.9756L87.7832 58.8451H86.9238ZM85.7764 55.8275L84.9463 53.6156C84.8389 53.3356 84.7282 52.9922 84.6143 52.5853C84.5426 52.8978 84.4401 53.2412 84.3066 53.6156L83.4668 55.8275H85.7764ZM90.8838 55.8665L89.0137 58.8451H88.0322L90.0342 55.7249C89.5101 55.5589 89.1292 55.3083 88.8916 54.973C88.654 54.6345 88.5352 54.208 88.5352 53.6937C88.5352 53.0557 88.7549 52.5658 89.1943 52.224C89.637 51.8789 90.306 51.7064 91.2012 51.7064H93.1641V58.8451H92.334V55.8665H90.8838ZM92.334 52.4242H91.2256C90.6299 52.4242 90.1774 52.5267 89.8682 52.7318C89.5589 52.9369 89.4043 53.2705 89.4043 53.7328C89.4043 54.68 90.0212 55.1537 91.2549 55.1537H92.334V52.4242ZM97.7295 51.7064H99.7461C100.693 51.7064 101.379 51.848 101.802 52.1312C102.225 52.4144 102.437 52.862 102.437 53.474C102.437 53.8971 102.318 54.2471 102.08 54.5238C101.846 54.7972 101.502 54.9746 101.05 55.056V55.1048C102.134 55.2904 102.676 55.86 102.676 56.8138C102.676 57.4518 102.459 57.9499 102.026 58.308C101.597 58.666 100.994 58.8451 100.22 58.8451H97.7295V51.7064ZM98.5596 54.763H99.9268C100.513 54.763 100.934 54.6719 101.191 54.4896C101.449 54.304 101.577 53.9932 101.577 53.557C101.577 53.1566 101.434 52.8685 101.147 52.6927C100.861 52.5137 100.405 52.4242 99.7803 52.4242H98.5596V54.763ZM98.5596 55.4662V58.1371H100.049C100.625 58.1371 101.058 58.0264 101.348 57.805C101.641 57.5804 101.787 57.2305 101.787 56.7552C101.787 56.3125 101.637 55.987 101.338 55.7787C101.042 55.5703 100.589 55.4662 99.9805 55.4662H98.5596ZM108.74 53.7865C108.74 54.5091 108.493 55.0658 107.998 55.4564C107.507 55.8438 106.802 56.0374 105.884 56.0374H105.044V58.8451H104.214V51.7064H106.064C107.848 51.7064 108.74 52.3997 108.74 53.7865ZM105.044 55.3246H105.791C106.527 55.3246 107.059 55.2057 107.388 54.9681C107.716 54.7305 107.881 54.3496 107.881 53.8255C107.881 53.3535 107.726 53.002 107.417 52.7708C107.108 52.5397 106.626 52.4242 105.972 52.4242H105.044V55.3246ZM114.219 58.8451H110.239V51.7064H114.219V52.4437H111.069V54.7435H114.028V55.4759H111.069V58.1029H114.219V58.8451ZM118.965 58.8451L116.543 52.5169H116.504C116.549 53.0182 116.572 53.6139 116.572 54.304V58.8451H115.806V51.7064H117.056L119.316 57.5951H119.355L121.636 51.7064H122.876V58.8451H122.046V54.2455C122.046 53.7181 122.069 53.1452 122.114 52.5267H122.075L119.634 58.8451H118.965ZM126.958 55.8665L125.088 58.8451H124.106L126.108 55.7249C125.584 55.5589 125.203 55.3083 124.966 54.973C124.728 54.6345 124.609 54.208 124.609 53.6937C124.609 53.0557 124.829 52.5658 125.269 52.224C125.711 51.8789 126.38 51.7064 127.275 51.7064H129.238V58.8451H128.408V55.8665H126.958ZM128.408 52.4242H127.3C126.704 52.4242 126.252 52.5267 125.942 52.7318C125.633 52.9369 125.479 53.2705 125.479 53.7328C125.479 54.68 126.095 55.1537 127.329 55.1537H128.408V52.4242Z" fill="#343333"/>
<defs>
<linearGradient id="paint0_linear" x1="100" y1="0" x2="100" y2="61.9718" gradientUnits="userSpaceOnUse">
<stop stop-color="#FFAF36"/>
<stop offset="1" stop-color="#D5830A"/>
</linearGradient>
</defs>
</svg>
