<svg width="200" height="70" fill="none" xmlns="http://www.w3.org/2000/svg"><path d="M2.16 36V6.84h13.104v4.392h-6.66v7.236h5.076v4.464H8.604v8.712h6.732V36H2.16zm20.062.36c-1.056 0-1.944-.252-2.664-.756a4.773 4.773 0 01-1.62-1.908 5.777 5.777 0 01-.54-2.412c0-1.296.252-2.388.756-3.276a7.296 7.296 0 012.052-2.232c.84-.6 1.764-1.104 2.772-1.512a42.242 42.242 0 012.988-1.152v-2.088c0-.36-.036-.672-.108-.936-.072-.288-.192-.504-.36-.648-.168-.168-.42-.252-.756-.252s-.6.072-.792.216c-.168.144-.288.348-.36.612-.072.24-.12.516-.144.828l-.144 1.512-5.472-.216c.12-2.496.78-4.332 1.98-5.508 1.224-1.2 3.048-1.8 5.472-1.8 2.112 0 3.684.588 4.716 1.764 1.056 1.152 1.584 2.652 1.584 4.5v9.72c0 .864.012 1.62.036 2.268.048.648.096 1.212.144 1.692.072.48.132.888.18 1.224h-5.256c-.072-.552-.156-1.152-.252-1.8-.096-.648-.168-1.032-.216-1.152-.24.864-.696 1.632-1.368 2.304-.648.672-1.524 1.008-2.628 1.008zm2.088-3.96c.24 0 .456-.048.648-.144.216-.096.408-.228.576-.396.168-.168.312-.336.432-.504v-5.688c-.48.288-.924.588-1.332.9a5.067 5.067 0 00-1.044.972c-.288.36-.516.756-.684 1.188a4.208 4.208 0 00-.216 1.404c0 .696.144 1.248.432 1.656.288.408.684.612 1.188.612zm17.157 3.96c-1.824 0-3.348-.408-4.572-1.224-1.2-.816-2.184-2.148-2.952-3.996l3.996-1.764c.384.936.828 1.68 1.332 2.232.528.528 1.104.792 1.728.792.456 0 .792-.096 1.008-.288.24-.192.36-.456.36-.792 0-.552-.216-1.056-.648-1.512-.408-.456-1.152-1.128-2.232-2.016l-1.512-1.26c-1.104-.936-1.98-1.836-2.628-2.7-.624-.888-.936-1.98-.936-3.276 0-1.128.288-2.124.864-2.988a6.08 6.08 0 012.376-2.016 7.13 7.13 0 013.168-.72c1.704 0 3.132.468 4.284 1.404 1.152.936 1.956 2.256 2.412 3.96l-3.78 1.728a6.851 6.851 0 00-.612-1.368 4.136 4.136 0 00-.972-1.152c-.36-.312-.756-.468-1.188-.468-.384 0-.696.108-.936.324-.216.216-.324.504-.324.864 0 .456.252.948.756 1.476.528.528 1.248 1.164 2.16 1.908l1.476 1.296c.6.504 1.188 1.044 1.764 1.62a7.677 7.677 0 011.404 1.908c.384.696.576 1.488.576 2.376 0 1.2-.3 2.232-.9 3.096a5.646 5.646 0 01-2.376 1.908 7.457 7.457 0 01-3.096.648zm9.425 5.688V37.98c.744 0 1.356-.048 1.836-.144.505-.096.877-.276 1.116-.54.264-.264.396-.624.396-1.08 0-.408-.072-.9-.215-1.476a47.68 47.68 0 00-.54-2.016l-4.896-17.532h5.508l2.627 12.024 1.98-12.024h5.545L59.46 36.504c-.313 1.44-.804 2.556-1.477 3.348a5.195 5.195 0 01-2.483 1.692c-.96.336-2.052.504-3.276.504h-1.333zm23.625-5.616c-1.824 0-3.348-.324-4.572-.972-1.224-.648-2.148-1.644-2.772-2.988-.624-1.368-.972-3.132-1.044-5.292l5.508-.828c.024 1.248.132 2.256.324 3.024.216.768.504 1.32.864 1.656.384.336.84.504 1.368.504.672 0 1.104-.228 1.296-.684.216-.456.324-.936.324-1.44 0-1.2-.288-2.208-.864-3.024-.576-.84-1.356-1.68-2.34-2.52l-2.52-2.196a14.623 14.623 0 01-2.808-3.168c-.744-1.2-1.116-2.676-1.116-4.428 0-2.472.732-4.356 2.196-5.652 1.464-1.32 3.456-1.98 5.976-1.98 1.56 0 2.808.264 3.744.792.96.528 1.68 1.224 2.16 2.088.504.84.84 1.74 1.008 2.7.192.936.3 1.836.324 2.7l-5.544.684a18.26 18.26 0 00-.18-2.232c-.072-.648-.24-1.14-.504-1.476-.264-.36-.672-.54-1.224-.54-.6 0-1.044.252-1.332.756-.264.504-.396 1.008-.396 1.512 0 1.08.252 1.968.756 2.664.528.672 1.212 1.38 2.052 2.124l2.412 2.124a16.028 16.028 0 013.204 3.672c.888 1.368 1.332 3.06 1.332 5.076 0 1.368-.312 2.616-.936 3.744-.624 1.104-1.512 1.98-2.664 2.628-1.128.648-2.472.972-4.032.972zm16.872-.216c-1.56 0-2.772-.228-3.636-.684-.84-.456-1.416-1.116-1.728-1.98-.312-.888-.468-1.956-.468-3.204V19.044h-2.016v-3.852h2.016V8.856h5.94v6.336h2.952v3.852h-2.952v10.728c0 .6.168 1.032.504 1.296.36.264.804.396 1.332.396.312 0 .6-.012.864-.036.264-.048.504-.084.72-.108v4.608c-.312.048-.804.108-1.476.18a19.25 19.25 0 01-2.052.108zm10.567.144c-1.056 0-1.944-.252-2.664-.756a4.773 4.773 0 01-1.62-1.908 5.777 5.777 0 01-.54-2.412c0-1.296.252-2.388.756-3.276a7.296 7.296 0 012.052-2.232c.84-.6 1.764-1.104 2.772-1.512a42.242 42.242 0 012.988-1.152v-2.088c0-.36-.036-.672-.108-.936-.072-.288-.192-.504-.36-.648-.168-.168-.42-.252-.756-.252s-.6.072-.792.216c-.168.144-.288.348-.36.612-.072.24-.12.516-.144.828l-.144 1.512-5.472-.216c.12-2.496.78-4.332 1.98-5.508 1.224-1.2 3.048-1.8 5.472-1.8 2.112 0 3.684.588 4.716 1.764 1.056 1.152 1.584 2.652 1.584 4.5v9.72c0 .864.012 1.62.036 2.268.048.648.096 1.212.144 1.692.072.48.132.888.18 1.224h-5.256c-.072-.552-.156-1.152-.252-1.8-.096-.648-.168-1.032-.216-1.152-.24.864-.696 1.632-1.368 2.304-.648.672-1.524 1.008-2.628 1.008zm2.088-3.96c.24 0 .456-.048.648-.144.216-.096.408-.228.576-.396.168-.168.312-.336.432-.504v-5.688c-.48.288-.924.588-1.332.9a5.067 5.067 0 00-1.044.972c-.288.36-.516.756-.684 1.188a4.208 4.208 0 00-.216 1.404c0 .696.144 1.248.432 1.656.288.408.684.612 1.188.612zm10.821 3.6V15.192h5.868v3.456c.672-1.2 1.344-2.112 2.016-2.736.672-.648 1.488-.972 2.448-.972.192 0 .36.012.504.036.144 0 .276.024.396.072v5.832a4.404 4.404 0 00-.9-.288 3.411 3.411 0 00-1.008-.144c-.672 0-1.296.18-1.872.54-.576.36-1.104.852-1.584 1.476V36h-5.868zm20.117.36c-1.824 0-3.348-.408-4.572-1.224-1.2-.816-2.184-2.148-2.952-3.996l3.996-1.764c.384.936.828 1.68 1.332 2.232.528.528 1.104.792 1.728.792.456 0 .792-.096 1.008-.288.24-.192.36-.456.36-.792 0-.552-.216-1.056-.648-1.512-.408-.456-1.152-1.128-2.232-2.016l-1.512-1.26c-1.104-.936-1.98-1.836-2.628-2.7-.624-.888-.936-1.98-.936-3.276 0-1.128.288-2.124.864-2.988a6.08 6.08 0 012.376-2.016 7.13 7.13 0 013.168-.72c1.704 0 3.132.468 4.284 1.404 1.152.936 1.956 2.256 2.412 3.96l-3.78 1.728a6.851 6.851 0 00-.612-1.368 4.136 4.136 0 00-.972-1.152c-.36-.312-.756-.468-1.188-.468-.384 0-.696.108-.936.324-.216.216-.324.504-.324.864 0 .456.252.948.756 1.476.528.528 1.248 1.164 2.16 1.908l1.476 1.296c.6.504 1.188 1.044 1.764 1.62a7.677 7.677 0 011.404 1.908c.384.696.576 1.488.576 2.376 0 1.2-.3 2.232-.9 3.096a5.646 5.646 0 01-2.376 1.908 7.457 7.457 0 01-3.096.648z" fill="#FFAF36"/><path d="M2.16 36V6.84h13.104v4.392h-6.66v7.236h5.076v4.464H8.604v8.712h6.732V36H2.16zm20.062.36c-1.056 0-1.944-.252-2.664-.756a4.773 4.773 0 01-1.62-1.908 5.777 5.777 0 01-.54-2.412c0-1.296.252-2.388.756-3.276a7.296 7.296 0 012.052-2.232c.84-.6 1.764-1.104 2.772-1.512a42.242 42.242 0 012.988-1.152v-2.088c0-.36-.036-.672-.108-.936-.072-.288-.192-.504-.36-.648-.168-.168-.42-.252-.756-.252s-.6.072-.792.216c-.168.144-.288.348-.36.612-.072.24-.12.516-.144.828l-.144 1.512-5.472-.216c.12-2.496.78-4.332 1.98-5.508 1.224-1.2 3.048-1.8 5.472-1.8 2.112 0 3.684.588 4.716 1.764 1.056 1.152 1.584 2.652 1.584 4.5v9.72c0 .864.012 1.62.036 2.268.048.648.096 1.212.144 1.692.072.48.132.888.18 1.224h-5.256c-.072-.552-.156-1.152-.252-1.8-.096-.648-.168-1.032-.216-1.152-.24.864-.696 1.632-1.368 2.304-.648.672-1.524 1.008-2.628 1.008zm2.088-3.96c.24 0 .456-.048.648-.144.216-.096.408-.228.576-.396.168-.168.312-.336.432-.504v-5.688c-.48.288-.924.588-1.332.9a5.067 5.067 0 00-1.044.972c-.288.36-.516.756-.684 1.188a4.208 4.208 0 00-.216 1.404c0 .696.144 1.248.432 1.656.288.408.684.612 1.188.612zm17.157 3.96c-1.824 0-3.348-.408-4.572-1.224-1.2-.816-2.184-2.148-2.952-3.996l3.996-1.764c.384.936.828 1.68 1.332 2.232.528.528 1.104.792 1.728.792.456 0 .792-.096 1.008-.288.24-.192.36-.456.36-.792 0-.552-.216-1.056-.648-1.512-.408-.456-1.152-1.128-2.232-2.016l-1.512-1.26c-1.104-.936-1.98-1.836-2.628-2.7-.624-.888-.936-1.98-.936-3.276 0-1.128.288-2.124.864-2.988a6.08 6.08 0 012.376-2.016 7.13 7.13 0 013.168-.72c1.704 0 3.132.468 4.284 1.404 1.152.936 1.956 2.256 2.412 3.96l-3.78 1.728a6.851 6.851 0 00-.612-1.368 4.136 4.136 0 00-.972-1.152c-.36-.312-.756-.468-1.188-.468-.384 0-.696.108-.936.324-.216.216-.324.504-.324.864 0 .456.252.948.756 1.476.528.528 1.248 1.164 2.16 1.908l1.476 1.296c.6.504 1.188 1.044 1.764 1.62a7.677 7.677 0 011.404 1.908c.384.696.576 1.488.576 2.376 0 1.2-.3 2.232-.9 3.096a5.646 5.646 0 01-2.376 1.908 7.457 7.457 0 01-3.096.648zm9.425 5.688V37.98c.744 0 1.356-.048 1.836-.144.505-.096.877-.276 1.116-.54.264-.264.396-.624.396-1.08 0-.408-.072-.9-.215-1.476a47.68 47.68 0 00-.54-2.016l-4.896-17.532h5.508l2.627 12.024 1.98-12.024h5.545L59.46 36.504c-.313 1.44-.804 2.556-1.477 3.348a5.195 5.195 0 01-2.483 1.692c-.96.336-2.052.504-3.276.504h-1.333zm23.625-5.616c-1.824 0-3.348-.324-4.572-.972-1.224-.648-2.148-1.644-2.772-2.988-.624-1.368-.972-3.132-1.044-5.292l5.508-.828c.024 1.248.132 2.256.324 3.024.216.768.504 1.32.864 1.656.384.336.84.504 1.368.504.672 0 1.104-.228 1.296-.684.216-.456.324-.936.324-1.44 0-1.2-.288-2.208-.864-3.024-.576-.84-1.356-1.68-2.34-2.52l-2.52-2.196a14.623 14.623 0 01-2.808-3.168c-.744-1.2-1.116-2.676-1.116-4.428 0-2.472.732-4.356 2.196-5.652 1.464-1.32 3.456-1.98 5.976-1.98 1.56 0 2.808.264 3.744.792.96.528 1.68 1.224 2.16 2.088.504.84.84 1.74 1.008 2.7.192.936.3 1.836.324 2.7l-5.544.684a18.26 18.26 0 00-.18-2.232c-.072-.648-.24-1.14-.504-1.476-.264-.36-.672-.54-1.224-.54-.6 0-1.044.252-1.332.756-.264.504-.396 1.008-.396 1.512 0 1.08.252 1.968.756 2.664.528.672 1.212 1.38 2.052 2.124l2.412 2.124a16.028 16.028 0 013.204 3.672c.888 1.368 1.332 3.06 1.332 5.076 0 1.368-.312 2.616-.936 3.744-.624 1.104-1.512 1.98-2.664 2.628-1.128.648-2.472.972-4.032.972zm16.872-.216c-1.56 0-2.772-.228-3.636-.684-.84-.456-1.416-1.116-1.728-1.98-.312-.888-.468-1.956-.468-3.204V19.044h-2.016v-3.852h2.016V8.856h5.94v6.336h2.952v3.852h-2.952v10.728c0 .6.168 1.032.504 1.296.36.264.804.396 1.332.396.312 0 .6-.012.864-.036.264-.048.504-.084.72-.108v4.608c-.312.048-.804.108-1.476.18a19.25 19.25 0 01-2.052.108zm10.567.144c-1.056 0-1.944-.252-2.664-.756a4.773 4.773 0 01-1.62-1.908 5.777 5.777 0 01-.54-2.412c0-1.296.252-2.388.756-3.276a7.296 7.296 0 012.052-2.232c.84-.6 1.764-1.104 2.772-1.512a42.242 42.242 0 012.988-1.152v-2.088c0-.36-.036-.672-.108-.936-.072-.288-.192-.504-.36-.648-.168-.168-.42-.252-.756-.252s-.6.072-.792.216c-.168.144-.288.348-.36.612-.072.24-.12.516-.144.828l-.144 1.512-5.472-.216c.12-2.496.78-4.332 1.98-5.508 1.224-1.2 3.048-1.8 5.472-1.8 2.112 0 3.684.588 4.716 1.764 1.056 1.152 1.584 2.652 1.584 4.5v9.72c0 .864.012 1.62.036 2.268.048.648.096 1.212.144 1.692.072.48.132.888.18 1.224h-5.256c-.072-.552-.156-1.152-.252-1.8-.096-.648-.168-1.032-.216-1.152-.24.864-.696 1.632-1.368 2.304-.648.672-1.524 1.008-2.628 1.008zm2.088-3.96c.24 0 .456-.048.648-.144.216-.096.408-.228.576-.396.168-.168.312-.336.432-.504v-5.688c-.48.288-.924.588-1.332.9a5.067 5.067 0 00-1.044.972c-.288.36-.516.756-.684 1.188a4.208 4.208 0 00-.216 1.404c0 .696.144 1.248.432 1.656.288.408.684.612 1.188.612zm10.821 3.6V15.192h5.868v3.456c.672-1.2 1.344-2.112 2.016-2.736.672-.648 1.488-.972 2.448-.972.192 0 .36.012.504.036.144 0 .276.024.396.072v5.832a4.404 4.404 0 00-.9-.288 3.411 3.411 0 00-1.008-.144c-.672 0-1.296.18-1.872.54-.576.36-1.104.852-1.584 1.476V36h-5.868zm20.117.36c-1.824 0-3.348-.408-4.572-1.224-1.2-.816-2.184-2.148-2.952-3.996l3.996-1.764c.384.936.828 1.68 1.332 2.232.528.528 1.104.792 1.728.792.456 0 .792-.096 1.008-.288.24-.192.36-.456.36-.792 0-.552-.216-1.056-.648-1.512-.408-.456-1.152-1.128-2.232-2.016l-1.512-1.26c-1.104-.936-1.98-1.836-2.628-2.7-.624-.888-.936-1.98-.936-3.276 0-1.128.288-2.124.864-2.988a6.08 6.08 0 012.376-2.016 7.13 7.13 0 013.168-.72c1.704 0 3.132.468 4.284 1.404 1.152.936 1.956 2.256 2.412 3.96l-3.78 1.728a6.851 6.851 0 00-.612-1.368 4.136 4.136 0 00-.972-1.152c-.36-.312-.756-.468-1.188-.468-.384 0-.696.108-.936.324-.216.216-.324.504-.324.864 0 .456.252.948.756 1.476.528.528 1.248 1.164 2.16 1.908l1.476 1.296c.6.504 1.188 1.044 1.764 1.62a7.677 7.677 0 011.404 1.908c.384.696.576 1.488.576 2.376 0 1.2-.3 2.232-.9 3.096a5.646 5.646 0 01-2.376 1.908 7.457 7.457 0 01-3.096.648z" fill="url(#paint0_linear)"/><path d="M6.401 58.845h-.83v-3.36h-3.76v3.36h-.83v-7.139h.83v3.037h3.76v-3.037h.83v7.14zm6.45 0l-.888-2.27H9.102l-.88 2.27h-.84l2.823-7.168h.698l2.808 7.168h-.86zm-1.147-3.017l-.83-2.212a12.12 12.12 0 01-.332-1.03 9.265 9.265 0 01-.308 1.03l-.84 2.212h2.31zm13.945 3.017H17.29v-7.139h.83v6.387h2.93v-6.387h.83v6.387h2.93v-6.387h.84v7.14zm6.45 0l-.888-2.27H28.35l-.88 2.27h-.84l2.823-7.168h.698l2.808 7.168h-.86zm-1.147-3.017l-.83-2.212a12.12 12.12 0 01-.332-1.03 9.244 9.244 0 01-.308 1.03l-.84 2.212h2.31zm6.968-4.122v.747h-3.15v6.392h-.83v-7.139h3.98zm10.02 3.56c0 1.142-.29 2.041-.87 2.695-.576.655-1.378.982-2.407.982-1.051 0-1.863-.32-2.436-.962-.57-.645-.855-1.553-.855-2.725 0-1.162.286-2.062.86-2.7.572-.641 1.386-.962 2.44-.962 1.026 0 1.827.326 2.403.977.576.65.864 1.55.864 2.695zm-5.689 0c0 .967.205 1.7.615 2.202.414.498 1.013.747 1.797.747.791 0 1.388-.249 1.792-.747.404-.498.605-1.232.605-2.202 0-.96-.201-1.688-.605-2.183-.4-.498-.994-.747-1.782-.747-.791 0-1.393.25-1.807.752-.41.498-.615 1.224-.615 2.178zm12.612 3.58h-.83v-6.402h-3.667v6.401h-.83v-7.139h5.327v7.14zm5.947 0h-3.979v-7.14h3.98v.738h-3.15v2.3h2.96v.732h-2.96v2.627h3.15v.742zm6.114-5.06c0 .723-.248 1.28-.742 1.67-.492.388-1.197.581-2.115.581h-.84v2.808h-.83v-7.139h1.851c1.784 0 2.676.694 2.676 2.08zm-3.697 1.539h.748c.735 0 1.268-.12 1.596-.357.33-.238.493-.618.493-1.143 0-.472-.154-.823-.463-1.054-.31-.231-.791-.347-1.446-.347h-.928v2.9zm9.175 3.52h-3.98v-7.139h3.98v.738h-3.15v2.3h2.96v.732h-2.96v2.627h3.15v.742zm3.526-3.672l-2.808-3.467h.928l2.778 3.457v-3.457h.801v3.457l2.783-3.457h.928l-2.813 3.457 2.9 3.682h-.956l-2.842-3.618v3.618h-.8v-3.618l-2.838 3.618h-.971l2.91-3.672zm10.996 3.672l-.889-2.27h-2.861l-.88 2.27h-.839l2.822-7.168h.699l2.807 7.168h-.86zm-1.148-3.017l-.83-2.212a12.12 12.12 0 01-.332-1.03 9.267 9.267 0 01-.307 1.03l-.84 2.212h2.31zm5.108.038l-1.87 2.98h-.982l2.002-3.121c-.524-.166-.905-.417-1.142-.752-.238-.338-.357-.765-.357-1.28 0-.637.22-1.127.66-1.469.442-.345 1.111-.518 2.006-.518h1.963v7.14h-.83v-2.98h-1.45zm1.45-3.442h-1.108c-.596 0-1.049.103-1.358.308-.31.205-.464.538-.464 1 0 .948.617 1.422 1.85 1.422h1.08v-2.73zm5.395-.718h2.017c.947 0 1.633.142 2.056.425.423.283.635.731.635 1.343 0 .423-.119.773-.357 1.05-.234.273-.578.45-1.03.532v.049c1.084.185 1.626.755 1.626 1.709 0 .638-.217 1.136-.65 1.494-.429.358-1.032.537-1.806.537h-2.49v-7.139zm.83 3.057h1.368c.586 0 1.007-.091 1.264-.273.258-.186.386-.497.386-.933 0-.4-.143-.689-.43-.864-.286-.18-.742-.269-1.367-.269h-1.22v2.339zm0 .703v2.671h1.49c.576 0 1.009-.11 1.299-.332.293-.225.439-.575.439-1.05 0-.443-.15-.768-.449-.976-.296-.209-.749-.313-1.357-.313H98.56zm10.181-1.68c0 .723-.247 1.28-.742 1.67-.491.388-1.196.581-2.114.581h-.84v2.808h-.83v-7.139h1.85c1.784 0 2.676.694 2.676 2.08zm-3.696 1.539h.747c.736 0 1.268-.12 1.597-.357.328-.238.493-.618.493-1.143 0-.472-.155-.823-.464-1.054-.309-.231-.791-.347-1.445-.347h-.928v2.9zm9.175 3.52h-3.98v-7.139h3.98v.738h-3.15v2.3h2.959v.732h-2.959v2.627h3.15v.742zm4.746 0l-2.422-6.328h-.039c.045.501.068 1.097.068 1.787v4.541h-.766v-7.139h1.25l2.26 5.89h.039l2.281-5.89h1.24v7.14h-.83v-4.6c0-.528.023-1.1.068-1.72h-.039l-2.441 6.32h-.669zm7.993-2.978l-1.87 2.978h-.982l2.002-3.12c-.524-.166-.905-.417-1.142-.752-.238-.338-.357-.765-.357-1.28 0-.637.22-1.127.66-1.469.442-.345 1.111-.518 2.006-.518h1.963v7.14h-.83v-2.98h-1.45zm1.45-3.443H127.3c-.596 0-1.048.103-1.358.308-.309.205-.463.538-.463 1 0 .948.616 1.422 1.85 1.422h1.079v-2.73z" fill="#343333"/><defs><linearGradient id="paint0_linear" x1="100" y1="0" x2="100" y2="61.972" gradientUnits="userSpaceOnUse"><stop stop-color="#FFAF36"/><stop offset="1" stop-color="#D5830A"/></linearGradient></defs></svg>